<?xml version="1.0" encoding="us-ascii" standalone="no"?><svg xmlns="http://www.w3.org/2000/svg" xmlns:xlink="http://www.w3.org/1999/xlink" contentStyleType="text/css" height="469px" preserveAspectRatio="none" style="width:516px;height:469px;background:#FFFFFF;" version="1.1" viewBox="0 0 516 469" width="516px" zoomAndPan="magnify"><defs/><g><text fill="#000000" font-family="sans-serif" font-size="14" font-weight="bold" lengthAdjust="spacing" textLength="361" x="79.75" y="29.5332">Car Detection and Queue Management with Actions</text><rect fill="#FFFFFF" height="73.7031" style="stroke:#181818;stroke-width:1.0;" width="10" x="205.5" y="108.5703"/><rect fill="#FFFFFF" height="73.7031" style="stroke:#181818;stroke-width:1.0;" width="10" x="205.5" y="297.8125"/><rect fill="#FFFFFF" height="71.7031" style="stroke:#181818;stroke-width:1.0;" width="10" x="419.5" y="146.9219"/><rect fill="#FFFFFF" height="71.7031" style="stroke:#181818;stroke-width:1.0;" width="10" x="419.5" y="336.1641"/><line style="stroke:#181818;stroke-width:0.5;stroke-dasharray:5.0,5.0;" x1="23" x2="23" y1="76.2188" y2="233.625"/><line style="stroke:#A80036;stroke-width:1.0;stroke-dasharray:1.0,4.0;" x1="23" x2="23" y1="233.625" y2="275.4609"/><line style="stroke:#181818;stroke-width:0.5;stroke-dasharray:5.0,5.0;" x1="23" x2="23" y1="275.4609" y2="432.8672"/><line style="stroke:#181818;stroke-width:0.5;stroke-dasharray:5.0,5.0;" x1="210" x2="210" y1="76.2188" y2="233.625"/><line style="stroke:#A80036;stroke-width:1.0;stroke-dasharray:1.0,4.0;" x1="210" x2="210" y1="233.625" y2="275.4609"/><line style="stroke:#181818;stroke-width:0.5;stroke-dasharray:5.0,5.0;" x1="210" x2="210" y1="275.4609" y2="432.8672"/><line style="stroke:#181818;stroke-width:0.5;stroke-dasharray:5.0,5.0;" x1="424.5" x2="424.5" y1="76.2188" y2="233.625"/><line style="stroke:#A80036;stroke-width:1.0;stroke-dasharray:1.0,4.0;" x1="424.5" x2="424.5" y1="233.625" y2="275.4609"/><line style="stroke:#181818;stroke-width:0.5;stroke-dasharray:5.0,5.0;" x1="424.5" x2="424.5" y1="275.4609" y2="432.8672"/><rect fill="#E2E2F0" height="31.6094" rx="2.5" ry="2.5" style="stroke:#181818;stroke-width:0.5;" width="37" x="5" y="43.6094"/><text fill="#000000" font-family="sans-serif" font-size="14" lengthAdjust="spacing" textLength="23" x="12" y="65.1426">Car</text><rect fill="#E2E2F0" height="31.6094" rx="2.5" ry="2.5" style="stroke:#181818;stroke-width:0.5;" width="37" x="5" y="431.8672"/><text fill="#000000" font-family="sans-serif" font-size="14" lengthAdjust="spacing" textLength="23" x="12" y="453.4004">Car</text><rect fill="#E2E2F0" height="31.6094" rx="2.5" ry="2.5" style="stroke:#181818;stroke-width:0.5;" width="169" x="126" y="43.6094"/><text fill="#000000" font-family="sans-serif" font-size="14" lengthAdjust="spacing" textLength="155" x="133" y="65.1426">Central Activator System</text><rect fill="#E2E2F0" height="31.6094" rx="2.5" ry="2.5" style="stroke:#181818;stroke-width:0.5;" width="169" x="126" y="431.8672"/><text fill="#000000" font-family="sans-serif" font-size="14" lengthAdjust="spacing" textLength="155" x="133" y="453.4004">Central Activator System</text><rect fill="#E2E2F0" height="31.6094" rx="2.5" ry="2.5" style="stroke:#181818;stroke-width:0.5;" width="84" x="382.5" y="43.6094"/><text fill="#000000" font-family="sans-serif" font-size="14" lengthAdjust="spacing" textLength="70" x="389.5" y="65.1426">Car Queue</text><rect fill="#E2E2F0" height="31.6094" rx="2.5" ry="2.5" style="stroke:#181818;stroke-width:0.5;" width="84" x="382.5" y="431.8672"/><text fill="#000000" font-family="sans-serif" font-size="14" lengthAdjust="spacing" textLength="70" x="389.5" y="453.4004">Car Queue</text><rect fill="#FFFFFF" height="73.7031" style="stroke:#181818;stroke-width:1.0;" width="10" x="205.5" y="108.5703"/><rect fill="#FFFFFF" height="73.7031" style="stroke:#181818;stroke-width:1.0;" width="10" x="205.5" y="297.8125"/><rect fill="#FFFFFF" height="71.7031" style="stroke:#181818;stroke-width:1.0;" width="10" x="419.5" y="146.9219"/><rect fill="#FFFFFF" height="71.7031" style="stroke:#181818;stroke-width:1.0;" width="10" x="419.5" y="336.1641"/><polygon fill="#181818" points="193.5,104.5703,203.5,108.5703,193.5,112.5703,197.5,108.5703" style="stroke:#181818;stroke-width:1.0;"/><line style="stroke:#181818;stroke-width:1.0;" x1="23.5" x2="199.5" y1="108.5703" y2="108.5703"/><text fill="#000000" font-family="sans-serif" font-size="13" lengthAdjust="spacing" textLength="131" x="30.5" y="103.7139">Arrives near traffic light</text><line style="stroke:#181818;stroke-width:1.0;" x1="215.5" x2="262.5" y1="133.9219" y2="133.9219"/><line style="stroke:#181818;stroke-width:1.0;" x1="262.5" x2="262.5" y1="133.9219" y2="146.9219"/><line style="stroke:#181818;stroke-width:1.0;" x1="221.5" x2="262.5" y1="146.9219" y2="146.9219"/><polygon fill="#181818" points="231.5,142.9219,221.5,146.9219,231.5,150.9219,227.5,146.9219" style="stroke:#181818;stroke-width:1.0;"/><text fill="#000000" font-family="sans-serif" font-size="13" lengthAdjust="spacing" textLength="170" x="227.5" y="129.0654">Process signal: car is waiting</text><polygon fill="#181818" points="407.5,178.2734,417.5,182.2734,407.5,186.2734,411.5,182.2734" style="stroke:#181818;stroke-width:1.0;"/><line style="stroke:#181818;stroke-width:1.0;" x1="210.5" x2="413.5" y1="182.2734" y2="182.2734"/><text fill="#000000" font-family="sans-serif" font-size="13" lengthAdjust="spacing" textLength="143" x="217.5" y="177.417">Add car to waiting queue</text><line style="stroke:#181818;stroke-width:1.0;" x1="429.5" x2="471.5" y1="217.625" y2="217.625"/><line style="stroke:#181818;stroke-width:1.0;" x1="471.5" x2="471.5" y1="217.625" y2="230.625"/><line style="stroke:#181818;stroke-width:1.0;" x1="424.5" x2="471.5" y1="230.625" y2="230.625"/><polygon fill="#181818" points="434.5,226.625,424.5,230.625,434.5,234.625,430.5,230.625" style="stroke:#181818;stroke-width:1.0;"/><text fill="#000000" font-family="sans-serif" font-size="13" lengthAdjust="spacing" textLength="73" x="436.5" y="212.7686">Enqueue car</text><text fill="#000000" font-family="sans-serif" font-size="11" lengthAdjust="spacing" textLength="58" x="195" y="259.0439">time passes</text><polygon fill="#181818" points="193.5,293.8125,203.5,297.8125,193.5,301.8125,197.5,297.8125" style="stroke:#181818;stroke-width:1.0;"/><line style="stroke:#181818;stroke-width:1.0;" x1="23.5" x2="199.5" y1="297.8125" y2="297.8125"/><text fill="#000000" font-family="sans-serif" font-size="13" lengthAdjust="spacing" textLength="163" x="30.5" y="292.9561">Moves away from traffic light</text><line style="stroke:#181818;stroke-width:1.0;" x1="215.5" x2="262.5" y1="323.1641" y2="323.1641"/><line style="stroke:#181818;stroke-width:1.0;" x1="262.5" x2="262.5" y1="323.1641" y2="336.1641"/><line style="stroke:#181818;stroke-width:1.0;" x1="221.5" x2="262.5" y1="336.1641" y2="336.1641"/><polygon fill="#181818" points="231.5,332.1641,221.5,336.1641,231.5,340.1641,227.5,336.1641" style="stroke:#181818;stroke-width:1.0;"/><text fill="#000000" font-family="sans-serif" font-size="13" lengthAdjust="spacing" textLength="158" x="227.5" y="318.3076">Process signal: car has left</text><polygon fill="#181818" points="407.5,367.5156,417.5,371.5156,407.5,375.5156,411.5,371.5156" style="stroke:#181818;stroke-width:1.0;"/><line style="stroke:#181818;stroke-width:1.0;" x1="210.5" x2="413.5" y1="371.5156" y2="371.5156"/><text fill="#000000" font-family="sans-serif" font-size="13" lengthAdjust="spacing" textLength="180" x="217.5" y="366.6592">Remove car from waiting queue</text><line style="stroke:#181818;stroke-width:1.0;" x1="429.5" x2="471.5" y1="406.8672" y2="406.8672"/><line style="stroke:#181818;stroke-width:1.0;" x1="471.5" x2="471.5" y1="406.8672" y2="419.8672"/><line style="stroke:#181818;stroke-width:1.0;" x1="424.5" x2="471.5" y1="419.8672" y2="419.8672"/><polygon fill="#181818" points="434.5,415.8672,424.5,419.8672,434.5,423.8672,430.5,419.8672" style="stroke:#181818;stroke-width:1.0;"/><text fill="#000000" font-family="sans-serif" font-size="13" lengthAdjust="spacing" textLength="73" x="436.5" y="402.0107">Dequeue car</text><!--SRC=[hL7BQiD03BpxAqJkyGVaK0X9Zu4-la2iPLkmtdLtbPZyVMKvPUEIGYczhQIPqMXMM3p10HCSISW9nm0O6dWzqvdWX04x6YW8J2mzx0sGgsh49EnuH9qeULLl3efFw0rzGOa9tgzPQDW0vjBynb47jjD0zgggkRbzAfGTx5FY2sK8f2DTqhRim7FNIuKBYkus50DhbPSK7UKCcRk0VWTEnJZ3X2mSkgAqs5YfM4jzD8sn97wnuCF03JtmiOHPsC_1mBF2FU5sTLtN83mGZ9YptghreoXESGu29xn2c-Bmlsdq-WcUMlbD5cyqg1MZcP4_17AadmFv1000]--></g></svg>