<?xml version="1.0" encoding="us-ascii" standalone="no"?><svg xmlns="http://www.w3.org/2000/svg" xmlns:xlink="http://www.w3.org/1999/xlink" contentStyleType="text/css" height="379px" preserveAspectRatio="none" style="width:306px;height:379px;background:#FFFFFF;" version="1.1" viewBox="0 0 306 379" width="306px" zoomAndPan="magnify"><defs/><g><ellipse cx="129.75" cy="20" fill="#222222" rx="10" ry="10" style="stroke:#222222;stroke-width:1.0;"/><polygon fill="#F1F1F1" points="90.25,50,169.25,50,181.25,62,169.25,74,90.25,74,78.25,62,90.25,50" style="stroke:#181818;stroke-width:0.5;"/><text fill="#000000" font-family="sans-serif" font-size="11" lengthAdjust="spacing" textLength="79" x="90.25" y="66.501">Next cell empty?</text><text fill="#000000" font-family="sans-serif" font-size="11" lengthAdjust="spacing" textLength="12" x="66.25" y="59.583">no</text><text fill="#000000" font-family="sans-serif" font-size="11" lengthAdjust="spacing" textLength="18" x="181.25" y="59.583">yes</text><rect fill="#F1F1F1" height="35.0938" rx="12.5" ry="12.5" style="stroke:#181818;stroke-width:0.5;" width="99" x="11" y="223.001"/><text fill="#000000" font-family="sans-serif" font-size="12" lengthAdjust="spacing" textLength="79" x="21" y="245.458">Signal Waiting</text><ellipse cx="60.5" cy="303.0947" fill="none" rx="10" ry="10" style="stroke:#222222;stroke-width:1.5;"/><line style="stroke:#222222;stroke-width:2.5;" x1="54.3128" x2="66.6872" y1="296.9075" y2="309.2819"/><line style="stroke:#222222;stroke-width:2.5;" x1="66.6872" x2="54.3128" y1="296.9075" y2="309.2819"/><ellipse cx="200.5" cy="217.3369" fill="#A80036" rx="1.5" ry="1.5" style="stroke:#A80036;stroke-width:1.0;"/><ellipse cx="62" cy="120.5" fill="#A80036" rx="1.5" ry="1.5" style="stroke:#A80036;stroke-width:1.0;"/><line style="stroke:#A80036;stroke-width:1.0;" x1="199" x2="60.5" y1="215.8369" y2="215.8369"/><line style="stroke:#A80036;stroke-width:1.0;" x1="60.5" x2="60.5" y1="119" y2="215.8369"/><polygon fill="#F1F1F1" points="163.5,132.918,234.5,132.918,246.5,144.918,234.5,156.918,163.5,156.918,151.5,144.918,163.5,132.918" style="stroke:#181818;stroke-width:0.5;"/><text fill="#000000" font-family="sans-serif" font-size="11" lengthAdjust="spacing" textLength="12" x="203" y="168.3369">no</text><text fill="#000000" font-family="sans-serif" font-size="11" lengthAdjust="spacing" textLength="71" x="163.5" y="149.4189">Light is green?</text><text fill="#000000" font-family="sans-serif" font-size="11" lengthAdjust="spacing" textLength="18" x="246.5" y="142.501">yes</text><polygon fill="#F1F1F1" points="142,84,256,84,268,96,256,108,142,108,130,96,142,84" style="stroke:#181818;stroke-width:0.5;"/><text fill="#000000" font-family="sans-serif" font-size="11" lengthAdjust="spacing" textLength="18" x="203" y="119.4189">yes</text><text fill="#000000" font-family="sans-serif" font-size="11" lengthAdjust="spacing" textLength="114" x="142" y="100.501">Traffic light to the right?</text><text fill="#000000" font-family="sans-serif" font-size="11" lengthAdjust="spacing" textLength="12" x="268" y="93.583">no</text><polygon fill="#F1F1F1" points="199,271.6729,211,283.6729,199,295.6729,187,283.6729,199,271.6729" style="stroke:#181818;stroke-width:0.5;"/><rect fill="#F1F1F1" height="35.0938" rx="12.5" ry="12.5" style="stroke:#181818;stroke-width:0.5;" width="70" x="94.75" y="333.0947"/><text fill="#000000" font-family="sans-serif" font-size="12" lengthAdjust="spacing" textLength="50" x="104.75" y="355.5518">moveCar</text><line style="stroke:#181818;stroke-width:1.0;" x1="78.25" x2="60.5" y1="62" y2="62"/><line style="stroke:#181818;stroke-width:1.0;" x1="60.5" x2="60.5" y1="62" y2="223.001"/><polygon fill="#181818" points="56.5,213.001,60.5,223.001,64.5,213.001,60.5,217.001" style="stroke:#181818;stroke-width:1.0;"/><line style="stroke:#181818;stroke-width:1.0;" x1="60.5" x2="60.5" y1="258.0947" y2="293.0947"/><polygon fill="#181818" points="56.5,283.0947,60.5,293.0947,64.5,283.0947,60.5,287.0947" style="stroke:#181818;stroke-width:1.0;"/><line style="stroke:#181818;stroke-width:1.0;" x1="199" x2="199" y1="156.918" y2="215.8369"/><polygon fill="#181818" points="195,205.8369,199,215.8369,203,205.8369,199,209.8369" style="stroke:#181818;stroke-width:1.0;"/><line style="stroke:#181818;stroke-width:1.0;" x1="246.5" x2="258.5" y1="144.918" y2="144.918"/><polygon fill="#181818" points="254.5,185.8369,258.5,195.8369,262.5,185.8369,258.5,189.8369" style="stroke:#181818;stroke-width:1.0;"/><line style="stroke:#181818;stroke-width:1.0;" x1="258.5" x2="258.5" y1="144.918" y2="246.7549"/><line style="stroke:#181818;stroke-width:1.0;" x1="258.5" x2="199" y1="246.7549" y2="246.7549"/><line style="stroke:#181818;stroke-width:1.0;" x1="199" x2="199" y1="246.7549" y2="271.6729"/><polygon fill="#181818" points="195,261.6729,199,271.6729,203,261.6729,199,265.6729" style="stroke:#181818;stroke-width:1.0;"/><line style="stroke:#181818;stroke-width:1.0;" x1="199" x2="199" y1="108" y2="132.918"/><polygon fill="#181818" points="195,122.918,199,132.918,203,122.918,199,126.918" style="stroke:#181818;stroke-width:1.0;"/><line style="stroke:#181818;stroke-width:1.0;" x1="268" x2="280" y1="96" y2="96"/><polygon fill="#181818" points="276,179.8369,280,189.8369,284,179.8369,280,183.8369" style="stroke:#181818;stroke-width:1.0;"/><line style="stroke:#181818;stroke-width:1.0;" x1="280" x2="280" y1="96" y2="283.6729"/><line style="stroke:#181818;stroke-width:1.0;" x1="280" x2="211" y1="283.6729" y2="283.6729"/><polygon fill="#181818" points="221,279.6729,211,283.6729,221,287.6729,217,283.6729" style="stroke:#181818;stroke-width:1.0;"/><line style="stroke:#181818;stroke-width:1.0;" x1="181.25" x2="199" y1="62" y2="62"/><line style="stroke:#181818;stroke-width:1.0;" x1="199" x2="199" y1="62" y2="84"/><polygon fill="#181818" points="195,74,199,84,203,74,199,78" style="stroke:#181818;stroke-width:1.0;"/><line style="stroke:#181818;stroke-width:1.0;" x1="199" x2="199" y1="295.6729" y2="318.0947"/><line style="stroke:#181818;stroke-width:1.0;" x1="199" x2="129.75" y1="318.0947" y2="318.0947"/><line style="stroke:#181818;stroke-width:1.0;" x1="129.75" x2="129.75" y1="318.0947" y2="333.0947"/><polygon fill="#181818" points="125.75,323.0947,129.75,333.0947,133.75,323.0947,129.75,327.0947" style="stroke:#181818;stroke-width:1.0;"/><line style="stroke:#181818;stroke-width:1.0;" x1="129.75" x2="129.75" y1="30" y2="50"/><polygon fill="#181818" points="125.75,40,129.75,50,133.75,40,129.75,44" style="stroke:#181818;stroke-width:1.0;"/><!--SRC=[LO-x3i8m34LtVuMtjXimjWC3As81YH65ugIHtAHAB4J_dhGf5LqiFwwlZwEe860rbXVw2BR4ZDGFCXuhb8uSbivNKCH1jOIidiJe7O-eVK35rhYUd40UnE6HajscsaCHI75UNIOfBfds7kfhSacAkx9YdMc0t0k88s4vKgncjbjGMjiMqy5EKFo4Xc4gLinLUvurDg89H6xpneRi061yilfn_fsS4Ao6fJLlvawETU_VT5AXWIy0]--></g></svg>