<?xml version="1.0" encoding="us-ascii" standalone="no"?><svg xmlns="http://www.w3.org/2000/svg" xmlns:xlink="http://www.w3.org/1999/xlink" contentStyleType="text/css" height="793px" preserveAspectRatio="none" style="width:433px;height:793px;background:#FFFFFF;" version="1.1" viewBox="0 0 433 793" width="433px" zoomAndPan="magnify"><defs/><g><text fill="#000000" font-family="sans-serif" font-size="14" font-weight="bold" lengthAdjust="spacing" textLength="405" x="10" y="24.5332">Grid System Structure with Car and TrafficLight as Entities</text><!--cluster Grid System--><g id="cluster_Grid System"><path d="M14.5,44.6094 L99.5,44.6094 A3.75,3.75 0 0 1 102,47.1094 L109,68.2188 L423.5,68.2188 A2.5,2.5 0 0 1 426,70.7188 L426,784.2494 A2.5,2.5 0 0 1 423.5,786.7494 L14.5,786.7494 A2.5,2.5 0 0 1 12,784.2494 L12,47.1094 A2.5,2.5 0 0 1 14.5,44.6094 " fill="none" style="stroke:#000000;stroke-width:1.5;"/><line style="stroke:#000000;stroke-width:1.5;" x1="12" x2="109" y1="68.2188" y2="68.2188"/><text fill="#000000" font-family="sans-serif" font-size="14" font-weight="bold" lengthAdjust="spacing" textLength="84" x="16" y="61.1426">Grid System</text></g><!--class Grid--><g id="elem_Grid"><rect codeLine="4" fill="#F1F1F1" height="83.2188" id="Grid" rx="2.5" ry="2.5" style="stroke:#181818;stroke-width:0.5;" width="145" x="125.5" y="80.6094"/><ellipse cx="180.25" cy="96.6094" fill="#ADD1B2" rx="11" ry="11" style="stroke:#181818;stroke-width:1.0;"/><path d="M183.0156,92.4844 Q183.1719,92.2656 183.3594,92.1563 Q183.5469,92.0469 183.7656,92.0469 Q184.1406,92.0469 184.375,92.3125 Q184.6094,92.5625 184.6094,93.1719 L184.6094,94.625 Q184.6094,95.2344 184.375,95.5 Q184.1406,95.7656 183.7656,95.7656 Q183.4219,95.7656 183.2188,95.5625 Q183.0156,95.375 182.9063,94.8594 Q182.8594,94.5 182.6719,94.3125 Q182.3438,93.9375 181.7344,93.7188 Q181.125,93.5 180.5,93.5 Q179.7344,93.5 179.0938,93.8281 Q178.4688,94.1563 177.9688,94.9063 Q177.4844,95.6563 177.4844,96.6875 L177.4844,97.7813 Q177.4844,99.0156 178.375,99.8438 Q179.2656,100.6563 180.8594,100.6563 Q181.7969,100.6563 182.4531,100.4063 Q182.8438,100.25 183.2656,99.8125 Q183.5313,99.5469 183.6719,99.4688 Q183.8281,99.3906 184.0313,99.3906 Q184.3594,99.3906 184.6094,99.6563 Q184.875,99.9063 184.875,100.25 Q184.875,100.5938 184.5313,101 Q184.0313,101.5781 183.2344,101.9063 Q182.1563,102.3594 180.8594,102.3594 Q179.3438,102.3594 178.1406,101.7344 Q177.1563,101.2344 176.4688,100.1719 Q175.7813,99.0938 175.7813,97.8125 L175.7813,96.6563 Q175.7813,95.3281 176.3906,94.1875 Q177.0156,93.0313 178.1094,92.4219 Q179.2031,91.7969 180.4375,91.7969 Q181.1719,91.7969 181.8125,91.9688 Q182.4688,92.125 183.0156,92.4844 Z " fill="#000000"/><text fill="#000000" font-family="sans-serif" font-size="14" lengthAdjust="spacing" textLength="27" x="200.75" y="102.3379">Grid</text><line style="stroke:#181818;stroke-width:0.5;" x1="126.5" x2="269.5" y1="112.6094" y2="112.6094"/><rect fill="none" height="6" style="stroke:#C82930;stroke-width:1.0;" width="6" x="133.5" y="123.9141"/><text fill="#000000" font-family="sans-serif" font-size="14" lengthAdjust="spacing" textLength="76" x="145.5" y="131.1426">cells: Cell[][]</text><line style="stroke:#181818;stroke-width:0.5;" x1="126.5" x2="269.5" y1="138.2188" y2="138.2188"/><ellipse cx="136.5" cy="152.5234" fill="#84BE84" rx="3" ry="3" style="stroke:#038048;stroke-width:1.0;"/><text fill="#000000" font-family="sans-serif" font-size="14" lengthAdjust="spacing" textLength="119" x="145.5" y="156.752">updateSimulation()</text></g><!--class Cell--><g id="elem_Cell"><rect codeLine="9" fill="#F1F1F1" height="118.4375" id="Cell" rx="2.5" ry="2.5" style="stroke:#181818;stroke-width:0.5;" width="193" x="101.5" y="241.8294"/><ellipse cx="181.75" cy="257.8294" fill="#ADD1B2" rx="11" ry="11" style="stroke:#181818;stroke-width:1.0;"/><path d="M184.5156,253.7044 Q184.6719,253.4856 184.8594,253.3763 Q185.0469,253.2669 185.2656,253.2669 Q185.6406,253.2669 185.875,253.5325 Q186.1094,253.7825 186.1094,254.3919 L186.1094,255.845 Q186.1094,256.4544 185.875,256.72 Q185.6406,256.9856 185.2656,256.9856 Q184.9219,256.9856 184.7188,256.7825 Q184.5156,256.595 184.4063,256.0794 Q184.3594,255.72 184.1719,255.5325 Q183.8438,255.1575 183.2344,254.9388 Q182.625,254.72 182,254.72 Q181.2344,254.72 180.5938,255.0481 Q179.9688,255.3763 179.4688,256.1263 Q178.9844,256.8763 178.9844,257.9075 L178.9844,259.0013 Q178.9844,260.2356 179.875,261.0638 Q180.7656,261.8763 182.3594,261.8763 Q183.2969,261.8763 183.9531,261.6263 Q184.3438,261.47 184.7656,261.0325 Q185.0313,260.7669 185.1719,260.6888 Q185.3281,260.6106 185.5313,260.6106 Q185.8594,260.6106 186.1094,260.8763 Q186.375,261.1263 186.375,261.47 Q186.375,261.8138 186.0313,262.22 Q185.5313,262.7981 184.7344,263.1263 Q183.6563,263.5794 182.3594,263.5794 Q180.8438,263.5794 179.6406,262.9544 Q178.6563,262.4544 177.9688,261.3919 Q177.2813,260.3138 177.2813,259.0325 L177.2813,257.8763 Q177.2813,256.5481 177.8906,255.4075 Q178.5156,254.2513 179.6094,253.6419 Q180.7031,253.0169 181.9375,253.0169 Q182.6719,253.0169 183.3125,253.1888 Q183.9688,253.345 184.5156,253.7044 Z " fill="#000000"/><text fill="#000000" font-family="sans-serif" font-size="14" lengthAdjust="spacing" textLength="24" x="202.25" y="263.5579">Cell</text><line style="stroke:#181818;stroke-width:0.5;" x1="102.5" x2="293.5" y1="273.8294" y2="273.8294"/><rect fill="none" height="6" style="stroke:#C82930;stroke-width:1.0;" width="6" x="109.5" y="285.1341"/><text fill="#000000" font-family="sans-serif" font-size="14" lengthAdjust="spacing" textLength="95" x="121.5" y="292.3626">state: Direction</text><rect fill="none" height="6" style="stroke:#C82930;stroke-width:1.0;" width="6" x="109.5" y="302.7434"/><text fill="#000000" font-family="sans-serif" font-size="14" lengthAdjust="spacing" textLength="51" x="121.5" y="309.972">car: Car</text><rect fill="none" height="6" style="stroke:#C82930;stroke-width:1.0;" width="6" x="109.5" y="320.3528"/><text fill="#000000" font-family="sans-serif" font-size="14" lengthAdjust="spacing" textLength="145" x="121.5" y="327.5813">trafficLight: TrafficLight</text><line style="stroke:#181818;stroke-width:0.5;" x1="102.5" x2="293.5" y1="334.6575" y2="334.6575"/><ellipse cx="112.5" cy="348.9622" fill="#84BE84" rx="3" ry="3" style="stroke:#038048;stroke-width:1.0;"/><text fill="#000000" font-family="sans-serif" font-size="14" lengthAdjust="spacing" textLength="167" x="121.5" y="353.1907">getNextCell(direction): Cell</text></g><!--class Car--><g id="elem_Car"><rect codeLine="16" fill="#F1F1F1" height="83.2188" id="Car" rx="2.5" ry="2.5" style="stroke:#181818;stroke-width:0.5;" width="70" x="28" y="482.2894"/><ellipse cx="49.75" cy="498.2894" fill="#ADD1B2" rx="11" ry="11" style="stroke:#181818;stroke-width:1.0;"/><path d="M52.5156,494.1644 Q52.6719,493.9456 52.8594,493.8363 Q53.0469,493.7269 53.2656,493.7269 Q53.6406,493.7269 53.875,493.9925 Q54.1094,494.2425 54.1094,494.8519 L54.1094,496.305 Q54.1094,496.9144 53.875,497.18 Q53.6406,497.4456 53.2656,497.4456 Q52.9219,497.4456 52.7188,497.2425 Q52.5156,497.055 52.4063,496.5394 Q52.3594,496.18 52.1719,495.9925 Q51.8438,495.6175 51.2344,495.3988 Q50.625,495.18 50,495.18 Q49.2344,495.18 48.5938,495.5081 Q47.9688,495.8363 47.4688,496.5863 Q46.9844,497.3363 46.9844,498.3675 L46.9844,499.4613 Q46.9844,500.6956 47.875,501.5238 Q48.7656,502.3363 50.3594,502.3363 Q51.2969,502.3363 51.9531,502.0863 Q52.3438,501.93 52.7656,501.4925 Q53.0313,501.2269 53.1719,501.1488 Q53.3281,501.0706 53.5313,501.0706 Q53.8594,501.0706 54.1094,501.3363 Q54.375,501.5863 54.375,501.93 Q54.375,502.2738 54.0313,502.68 Q53.5313,503.2581 52.7344,503.5863 Q51.6563,504.0394 50.3594,504.0394 Q48.8438,504.0394 47.6406,503.4144 Q46.6563,502.9144 45.9688,501.8519 Q45.2813,500.7738 45.2813,499.4925 L45.2813,498.3363 Q45.2813,497.0081 45.8906,495.8675 Q46.5156,494.7113 47.6094,494.1019 Q48.7031,493.4769 49.9375,493.4769 Q50.6719,493.4769 51.3125,493.6488 Q51.9688,493.805 52.5156,494.1644 Z " fill="#000000"/><text fill="#000000" font-family="sans-serif" font-size="14" lengthAdjust="spacing" textLength="23" x="65.25" y="504.0179">Car</text><line style="stroke:#181818;stroke-width:0.5;" x1="29" x2="97" y1="514.2894" y2="514.2894"/><rect fill="none" height="6" style="stroke:#C82930;stroke-width:1.0;" width="6" x="36" y="525.5941"/><text fill="#000000" font-family="sans-serif" font-size="14" lengthAdjust="spacing" textLength="34" x="48" y="532.8226">id: int</text><line style="stroke:#181818;stroke-width:0.5;" x1="29" x2="97" y1="539.8988" y2="539.8988"/><ellipse cx="39" cy="554.2034" fill="#84BE84" rx="3" ry="3" style="stroke:#038048;stroke-width:1.0;"/><text fill="#000000" font-family="sans-serif" font-size="14" lengthAdjust="spacing" textLength="44" x="48" y="558.432">move()</text></g><!--class TrafficLight--><g id="elem_TrafficLight"><rect codeLine="21" fill="#F1F1F1" height="83.2188" id="TrafficLight" rx="2.5" ry="2.5" style="stroke:#181818;stroke-width:0.5;" width="129" x="133.5" y="482.2894"/><ellipse cx="160.2" cy="498.2894" fill="#ADD1B2" rx="11" ry="11" style="stroke:#181818;stroke-width:1.0;"/><path d="M162.9656,494.1644 Q163.1219,493.9456 163.3094,493.8363 Q163.4969,493.7269 163.7156,493.7269 Q164.0906,493.7269 164.325,493.9925 Q164.5594,494.2425 164.5594,494.8519 L164.5594,496.305 Q164.5594,496.9144 164.325,497.18 Q164.0906,497.4456 163.7156,497.4456 Q163.3719,497.4456 163.1688,497.2425 Q162.9656,497.055 162.8563,496.5394 Q162.8094,496.18 162.6219,495.9925 Q162.2938,495.6175 161.6844,495.3988 Q161.075,495.18 160.45,495.18 Q159.6844,495.18 159.0438,495.5081 Q158.4188,495.8363 157.9188,496.5863 Q157.4344,497.3363 157.4344,498.3675 L157.4344,499.4613 Q157.4344,500.6956 158.325,501.5238 Q159.2156,502.3363 160.8094,502.3363 Q161.7469,502.3363 162.4031,502.0863 Q162.7938,501.93 163.2156,501.4925 Q163.4813,501.2269 163.6219,501.1488 Q163.7781,501.0706 163.9813,501.0706 Q164.3094,501.0706 164.5594,501.3363 Q164.825,501.5863 164.825,501.93 Q164.825,502.2738 164.4813,502.68 Q163.9813,503.2581 163.1844,503.5863 Q162.1063,504.0394 160.8094,504.0394 Q159.2938,504.0394 158.0906,503.4144 Q157.1063,502.9144 156.4188,501.8519 Q155.7313,500.7738 155.7313,499.4925 L155.7313,498.3363 Q155.7313,497.0081 156.3406,495.8675 Q156.9656,494.7113 158.0594,494.1019 Q159.1531,493.4769 160.3875,493.4769 Q161.1219,493.4769 161.7625,493.6488 Q162.4188,493.805 162.9656,494.1644 Z " fill="#000000"/><text fill="#000000" font-family="sans-serif" font-size="14" lengthAdjust="spacing" textLength="71" x="176.8" y="504.0179">TrafficLight</text><line style="stroke:#181818;stroke-width:0.5;" x1="134.5" x2="261.5" y1="514.2894" y2="514.2894"/><rect fill="none" height="6" style="stroke:#C82930;stroke-width:1.0;" width="6" x="141.5" y="525.5941"/><text fill="#000000" font-family="sans-serif" font-size="14" lengthAdjust="spacing" textLength="103" x="153.5" y="532.8226">state: LightState</text><line style="stroke:#181818;stroke-width:0.5;" x1="134.5" x2="261.5" y1="539.8988" y2="539.8988"/><ellipse cx="144.5" cy="554.2034" fill="#84BE84" rx="3" ry="3" style="stroke:#038048;stroke-width:1.0;"/><text fill="#000000" font-family="sans-serif" font-size="14" lengthAdjust="spacing" textLength="49" x="153.5" y="558.432">toggle()</text></g><!--class Direction--><g id="elem_Direction"><rect codeLine="26" fill="#F1F1F1" height="171.2656" id="Direction" rx="2.5" ry="2.5" style="stroke:#181818;stroke-width:0.5;" width="112" x="298" y="438.2694"/><ellipse cx="323.8" cy="454.2694" fill="#EB937F" rx="11" ry="11" style="stroke:#181818;stroke-width:1.0;"/><path d="M322.6594,455.0662 L322.6594,457.5662 L326.9875,457.5662 L326.9875,456.6444 Q326.9875,456.035 327.2219,455.7694 Q327.4719,455.5037 327.8469,455.5037 Q328.2219,455.5037 328.4563,455.7694 Q328.6906,456.035 328.6906,456.6444 L328.6906,459.2694 L320.6906,459.2694 Q320.0656,459.2694 319.8,459.035 Q319.55,458.8006 319.55,458.41 Q319.55,458.035 319.8156,457.8006 Q320.0813,457.5662 320.6906,457.5662 L320.9563,457.5662 L320.9563,450.91 L320.6906,450.91 Q320.0656,450.91 319.8,450.6756 Q319.55,450.4412 319.55,450.0506 Q319.55,449.6756 319.8,449.4412 Q320.0656,449.2069 320.6906,449.2069 L328.3156,449.2069 L328.3156,451.8006 Q328.3156,452.41 328.0813,452.6756 Q327.8625,452.9256 327.4719,452.9256 Q327.0969,452.9256 326.8625,452.6756 Q326.6281,452.41 326.6281,451.8006 L326.6281,450.91 L322.6594,450.91 L322.6594,453.3631 L324.1438,453.3631 Q324.1438,452.7069 324.2688,452.5194 Q324.5344,452.1131 325.0031,452.1131 Q325.3781,452.1131 325.6125,452.3787 Q325.8469,452.6287 325.8469,453.2381 L325.8469,455.2069 Q325.8469,455.7537 325.7219,455.9412 Q325.4563,456.3319 325.0031,456.3319 Q324.5344,456.3319 324.2688,455.9256 Q324.1438,455.7381 324.1438,455.0662 L322.6594,455.0662 Z " fill="#000000"/><text fill="#000000" font-family="sans-serif" font-size="14" lengthAdjust="spacing" textLength="56" x="340.2" y="459.9979">Direction</text><line style="stroke:#181818;stroke-width:0.5;" x1="299" x2="409" y1="470.2694" y2="470.2694"/><text fill="#000000" font-family="sans-serif" font-size="14" lengthAdjust="spacing" textLength="48" x="304" y="488.8026">NORTH</text><text fill="#000000" font-family="sans-serif" font-size="14" lengthAdjust="spacing" textLength="36" x="304" y="506.412">EAST</text><text fill="#000000" font-family="sans-serif" font-size="14" lengthAdjust="spacing" textLength="47" x="304" y="524.0213">SOUTH</text><text fill="#000000" font-family="sans-serif" font-size="14" lengthAdjust="spacing" textLength="40" x="304" y="541.6307">WEST</text><text fill="#000000" font-family="sans-serif" font-size="14" lengthAdjust="spacing" textLength="47" x="304" y="559.2401">EMPTY</text><text fill="#000000" font-family="sans-serif" font-size="14" lengthAdjust="spacing" textLength="49" x="304" y="576.8495">SPAWN</text><text fill="#000000" font-family="sans-serif" font-size="14" lengthAdjust="spacing" textLength="100" x="304" y="594.4588">INTERSECTION</text><line style="stroke:#181818;stroke-width:0.5;" x1="299" x2="409" y1="601.535" y2="601.535"/></g><!--class LightState--><g id="elem_LightState"><rect codeLine="36" fill="#F1F1F1" height="83.2188" id="LightState" rx="2.5" ry="2.5" style="stroke:#181818;stroke-width:0.5;" width="96" x="150" y="687.5294"/><ellipse cx="165" cy="703.5294" fill="#EB937F" rx="11" ry="11" style="stroke:#181818;stroke-width:1.0;"/><path d="M163.8594,704.3263 L163.8594,706.8263 L168.1875,706.8263 L168.1875,705.9044 Q168.1875,705.295 168.4219,705.0294 Q168.6719,704.7638 169.0469,704.7638 Q169.4219,704.7638 169.6563,705.0294 Q169.8906,705.295 169.8906,705.9044 L169.8906,708.5294 L161.8906,708.5294 Q161.2656,708.5294 161,708.295 Q160.75,708.0606 160.75,707.67 Q160.75,707.295 161.0156,707.0606 Q161.2813,706.8263 161.8906,706.8263 L162.1563,706.8263 L162.1563,700.17 L161.8906,700.17 Q161.2656,700.17 161,699.9356 Q160.75,699.7013 160.75,699.3106 Q160.75,698.9356 161,698.7013 Q161.2656,698.4669 161.8906,698.4669 L169.5156,698.4669 L169.5156,701.0606 Q169.5156,701.67 169.2813,701.9356 Q169.0625,702.1856 168.6719,702.1856 Q168.2969,702.1856 168.0625,701.9356 Q167.8281,701.67 167.8281,701.0606 L167.8281,700.17 L163.8594,700.17 L163.8594,702.6231 L165.3438,702.6231 Q165.3438,701.9669 165.4688,701.7794 Q165.7344,701.3731 166.2031,701.3731 Q166.5781,701.3731 166.8125,701.6388 Q167.0469,701.8888 167.0469,702.4981 L167.0469,704.4669 Q167.0469,705.0138 166.9219,705.2013 Q166.6563,705.5919 166.2031,705.5919 Q165.7344,705.5919 165.4688,705.1856 Q165.3438,704.9981 165.3438,704.3263 L163.8594,704.3263 Z " fill="#000000"/><text fill="#000000" font-family="sans-serif" font-size="14" lengthAdjust="spacing" textLength="64" x="179" y="709.2579">LightState</text><line style="stroke:#181818;stroke-width:0.5;" x1="151" x2="245" y1="719.5294" y2="719.5294"/><text fill="#000000" font-family="sans-serif" font-size="14" lengthAdjust="spacing" textLength="29" x="156" y="738.0626">RED</text><text fill="#000000" font-family="sans-serif" font-size="14" lengthAdjust="spacing" textLength="48" x="156" y="755.672">GREEN</text><line style="stroke:#181818;stroke-width:0.5;" x1="151" x2="245" y1="762.7481" y2="762.7481"/></g><!--reverse link Grid to Cell--><g id="link_Grid_Cell"><path codeLine="41" d="M198,176.2294 C198,199.1894 198,216.1994 198,241.4994 " fill="none" id="Grid-backto-Cell" style="stroke:#181818;stroke-width:1.0;"/><polygon fill="#181818" points="198,164.2294,194,170.2294,198,176.2294,202,170.2294,198,164.2294" style="stroke:#181818;stroke-width:1.0;"/><text fill="#000000" font-family="sans-serif" font-size="13" lengthAdjust="spacing" textLength="49" x="199" y="208.3245">contains</text><text fill="#000000" font-family="sans-serif" font-size="13" lengthAdjust="spacing" textLength="7" x="190.4641" y="185.4093">1</text><text fill="#000000" font-family="sans-serif" font-size="13" lengthAdjust="spacing" textLength="5" x="192.6953" y="230.7834">*</text></g><!--reverse link Cell to Direction--><g id="link_Cell_Direction"><path codeLine="42" d="M246.7174,370.1295 C253.8274,380.0995 254.15,380.5894 261,390.2694 C272.86,407.0194 285.52,425.0094 297.55,442.1594 " fill="none" id="Cell-backto-Direction" style="stroke:#181818;stroke-width:1.0;"/><polygon fill="#181818" points="239.75,360.3594,239.977,367.5669,246.7174,370.1295,246.4904,362.9219,239.75,360.3594" style="stroke:#181818;stroke-width:1.0;"/><text fill="#000000" font-family="sans-serif" font-size="13" lengthAdjust="spacing" textLength="29" x="274.71" y="404.7645">state</text><text fill="#000000" font-family="sans-serif" font-size="13" lengthAdjust="spacing" textLength="7" x="237.1727" y="381.6577">1</text><text fill="#000000" font-family="sans-serif" font-size="13" lengthAdjust="spacing" textLength="7" x="282.8689" y="428.1787">1</text></g><!--reverse link Cell to Car--><g id="link_Cell_Car"><path codeLine="43" d="M147.7758,370.5362 C141.0058,380.2862 141.09,380.5294 135,390.2694 C116.32,420.1494 97.39,455.2394 83.64,481.8194 " fill="none" id="Cell-backto-Car" style="stroke:#181818;stroke-width:1.0;"/><polygon fill="#181818" points="154.62,360.6794,147.9123,363.3264,147.7758,370.5362,154.4835,367.8892,154.62,360.6794" style="stroke:#181818;stroke-width:1.0;"/><text fill="#000000" font-family="sans-serif" font-size="13" lengthAdjust="spacing" textLength="53" x="136" y="404.7645">may hold</text><text fill="#000000" font-family="sans-serif" font-size="13" lengthAdjust="spacing" textLength="22" x="126.6722" y="381.5909">0..1</text><text fill="#000000" font-family="sans-serif" font-size="13" lengthAdjust="spacing" textLength="22" x="63.1764" y="471.3611">0..1</text></g><!--reverse link Cell to TrafficLight--><g id="link_Cell_TrafficLight"><path codeLine="44" d="M198,372.6494 C198,410.8594 198,447.7694 198,481.8594 " fill="none" id="Cell-backto-TrafficLight" style="stroke:#181818;stroke-width:1.0;"/><polygon fill="#181818" points="198,360.6494,194,366.6494,198,372.6494,202,366.6494,198,360.6494" style="stroke:#181818;stroke-width:1.0;"/><text fill="#000000" font-family="sans-serif" font-size="13" lengthAdjust="spacing" textLength="53" x="199" y="404.7645">may hold</text><text fill="#000000" font-family="sans-serif" font-size="13" lengthAdjust="spacing" textLength="22" x="174.7969" y="381.5576">0..1</text><text fill="#000000" font-family="sans-serif" font-size="13" lengthAdjust="spacing" textLength="22" x="174.2469" y="471.4075">0..1</text></g><!--reverse link TrafficLight to LightState--><g id="link_TrafficLight_LightState"><path codeLine="45" d="M198,577.5394 C198,612.8694 198,651.8094 198,687.2194 " fill="none" id="TrafficLight-backto-LightState" style="stroke:#181818;stroke-width:1.0;"/><polygon fill="#181818" points="198,565.5394,194,571.5394,198,577.5394,202,571.5394,198,565.5394" style="stroke:#181818;stroke-width:1.0;"/><text fill="#000000" font-family="sans-serif" font-size="13" lengthAdjust="spacing" textLength="21" x="199" y="654.0245">has</text><text fill="#000000" font-family="sans-serif" font-size="13" lengthAdjust="spacing" textLength="7" x="190.4422" y="586.974">1</text><text fill="#000000" font-family="sans-serif" font-size="13" lengthAdjust="spacing" textLength="7" x="190.4422" y="676.7866">1</text></g><!--SRC=[TL5DRy8m3BttLrWz0HDek-Q68698Mq5j9pGX3b4QscXfYnft6vhuxqlJxw4T4Zlsy_EpWnALW4qX8mYk6aKA0HObnx8Gy2KnWHKhW6KHX0KxdoL_aN62m3JG32LAeHtdmlW7YmMu0nONVXm0hfZMDNdr19W35qff0YjZZgVZoKOVeBn434KWqr8nb7ascPh4pPoEf2heI3GQD86rB0Ilu2qtAqYbjtdYG34PwM-wnW8zyOqLzIHgkQQrkBl-PWrjUnaHa5dBakQVubxlQ5r_TDjWKFaD1UPnh5eISuciJFlfcd9lvuVFrgFB8BHEi7jhGWVQXEZhFdola_lbmRFUrWkf7z1LkDrvenQzaAQ7JzVMRdnAEwZzF_V9XTby3kxChV-20CypP3BJ1c8Z7SJONZoff-v0Zuj5YwlTQhC4KdQ595VH_xZHHaS5eynGnM0-0WdJpkqN]--></g></svg>