<?xml version="1.0" encoding="us-ascii" standalone="no"?><svg xmlns="http://www.w3.org/2000/svg" xmlns:xlink="http://www.w3.org/1999/xlink" contentStyleType="text/css" height="453px" preserveAspectRatio="none" style="width:454px;height:453px;background:#FFFFFF;" version="1.1" viewBox="0 0 454 453" width="454px" zoomAndPan="magnify"><defs/><g><text fill="#000000" font-family="sans-serif" font-size="14" font-weight="bold" lengthAdjust="spacing" textLength="180" x="130.25" y="24.5332">Car Spawning Mechanism</text><!--cluster Spawn Point--><g id="cluster_Spawn Point"><path d="M74.5,167.6594 L161.5,167.6594 A3.75,3.75 0 0 1 164,170.1594 L171,191.2688 L295.5,191.2688 A2.5,2.5 0 0 1 298,193.7688 L298,443.9894 A2.5,2.5 0 0 1 295.5,446.4894 L74.5,446.4894 A2.5,2.5 0 0 1 72,443.9894 L72,170.1594 A2.5,2.5 0 0 1 74.5,167.6594 " fill="none" style="stroke:#000000;stroke-width:1.5;"/><line style="stroke:#000000;stroke-width:1.5;" x1="72" x2="171" y1="191.2688" y2="191.2688"/><text fill="#000000" font-family="sans-serif" font-size="14" font-weight="bold" lengthAdjust="spacing" textLength="86" x="76" y="184.1926">Spawn Point</text></g><!--class SpawnCell--><g id="elem_SpawnCell"><rect codeLine="4" fill="#F1F1F1" height="100.8281" id="SpawnCell" rx="2.5" ry="2.5" style="stroke:#181818;stroke-width:0.5;" width="193" x="88.5" y="203.6594"/><ellipse cx="147.75" cy="219.6594" fill="#ADD1B2" rx="11" ry="11" style="stroke:#181818;stroke-width:1.0;"/><path d="M150.5156,215.5344 Q150.6719,215.3156 150.8594,215.2063 Q151.0469,215.0969 151.2656,215.0969 Q151.6406,215.0969 151.875,215.3625 Q152.1094,215.6125 152.1094,216.2219 L152.1094,217.675 Q152.1094,218.2844 151.875,218.55 Q151.6406,218.8156 151.2656,218.8156 Q150.9219,218.8156 150.7188,218.6125 Q150.5156,218.425 150.4063,217.9094 Q150.3594,217.55 150.1719,217.3625 Q149.8438,216.9875 149.2344,216.7688 Q148.625,216.55 148,216.55 Q147.2344,216.55 146.5938,216.8781 Q145.9688,217.2063 145.4688,217.9563 Q144.9844,218.7063 144.9844,219.7375 L144.9844,220.8313 Q144.9844,222.0656 145.875,222.8938 Q146.7656,223.7063 148.3594,223.7063 Q149.2969,223.7063 149.9531,223.4563 Q150.3438,223.3 150.7656,222.8625 Q151.0313,222.5969 151.1719,222.5188 Q151.3281,222.4406 151.5313,222.4406 Q151.8594,222.4406 152.1094,222.7063 Q152.375,222.9563 152.375,223.3 Q152.375,223.6438 152.0313,224.05 Q151.5313,224.6281 150.7344,224.9563 Q149.6563,225.4094 148.3594,225.4094 Q146.8438,225.4094 145.6406,224.7844 Q144.6563,224.2844 143.9688,223.2219 Q143.2813,222.1438 143.2813,220.8625 L143.2813,219.7063 Q143.2813,218.3781 143.8906,217.2375 Q144.5156,216.0813 145.6094,215.4719 Q146.7031,214.8469 147.9375,214.8469 Q148.6719,214.8469 149.3125,215.0188 Q149.9688,215.175 150.5156,215.5344 Z " fill="#000000"/><text fill="#000000" font-family="sans-serif" font-size="14" lengthAdjust="spacing" textLength="66" x="168.25" y="225.3879">SpawnCell</text><line style="stroke:#181818;stroke-width:0.5;" x1="89.5" x2="280.5" y1="235.6594" y2="235.6594"/><rect fill="none" height="6" style="stroke:#C82930;stroke-width:1.0;" width="6" x="96.5" y="246.9641"/><text fill="#000000" font-family="sans-serif" font-size="14" lengthAdjust="spacing" textLength="93" x="108.5" y="254.1926">spawnRate: int</text><rect fill="none" height="6" style="stroke:#C82930;stroke-width:1.0;" width="6" x="96.5" y="264.5734"/><text fill="#000000" font-family="sans-serif" font-size="14" lengthAdjust="spacing" textLength="118" x="108.5" y="271.802">lastSpawnTime: int</text><line style="stroke:#181818;stroke-width:0.5;" x1="89.5" x2="280.5" y1="278.8781" y2="278.8781"/><ellipse cx="99.5" cy="293.1828" fill="#84BE84" rx="3" ry="3" style="stroke:#038048;stroke-width:1.0;"/><text fill="#000000" font-family="sans-serif" font-size="14" lengthAdjust="spacing" textLength="167" x="108.5" y="297.4113">trySpawnCar(currentTime)</text></g><!--class Cell--><g id="elem_Cell"><rect fill="#F1F1F1" height="48" id="Cell" rx="2.5" ry="2.5" style="stroke:#181818;stroke-width:0.5;" width="56" x="157" y="382.4894"/><ellipse cx="172" cy="398.4894" fill="#ADD1B2" rx="11" ry="11" style="stroke:#181818;stroke-width:1.0;"/><path d="M174.7656,394.3644 Q174.9219,394.1456 175.1094,394.0363 Q175.2969,393.9269 175.5156,393.9269 Q175.8906,393.9269 176.125,394.1925 Q176.3594,394.4425 176.3594,395.0519 L176.3594,396.505 Q176.3594,397.1144 176.125,397.38 Q175.8906,397.6456 175.5156,397.6456 Q175.1719,397.6456 174.9688,397.4425 Q174.7656,397.255 174.6563,396.7394 Q174.6094,396.38 174.4219,396.1925 Q174.0938,395.8175 173.4844,395.5988 Q172.875,395.38 172.25,395.38 Q171.4844,395.38 170.8438,395.7081 Q170.2188,396.0363 169.7188,396.7863 Q169.2344,397.5363 169.2344,398.5675 L169.2344,399.6613 Q169.2344,400.8956 170.125,401.7238 Q171.0156,402.5363 172.6094,402.5363 Q173.5469,402.5363 174.2031,402.2863 Q174.5938,402.13 175.0156,401.6925 Q175.2813,401.4269 175.4219,401.3488 Q175.5781,401.2706 175.7813,401.2706 Q176.1094,401.2706 176.3594,401.5363 Q176.625,401.7863 176.625,402.13 Q176.625,402.4738 176.2813,402.88 Q175.7813,403.4581 174.9844,403.7863 Q173.9063,404.2394 172.6094,404.2394 Q171.0938,404.2394 169.8906,403.6144 Q168.9063,403.1144 168.2188,402.0519 Q167.5313,400.9738 167.5313,399.6925 L167.5313,398.5363 Q167.5313,397.2081 168.1406,396.0675 Q168.7656,394.9113 169.8594,394.3019 Q170.9531,393.6769 172.1875,393.6769 Q172.9219,393.6769 173.5625,393.8488 Q174.2188,394.005 174.7656,394.3644 Z " fill="#000000"/><text fill="#000000" font-family="sans-serif" font-size="14" lengthAdjust="spacing" textLength="24" x="186" y="404.2179">Cell</text><line style="stroke:#181818;stroke-width:0.5;" x1="158" x2="212" y1="414.4894" y2="414.4894"/><line style="stroke:#181818;stroke-width:0.5;" x1="158" x2="212" y1="422.4894" y2="422.4894"/></g><g id="elem_clock"><rect fill="#F1F1F1" height="47.2188" style="stroke:#181818;stroke-width:0.5;" width="118" x="7" y="50.5294"/><text fill="#000000" font-family="sans-serif" font-size="14" lengthAdjust="spacing" textLength="104" x="14" y="67.0626">Simulation Clock</text><line style="stroke:#181818;stroke-width:0.5;" x1="8" x2="124" y1="72.1388" y2="72.1388"/><text fill="#000000" font-family="sans-serif" font-size="14" lengthAdjust="spacing" textLength="66" x="13" y="90.672">time: 2000</text></g><!--class Car--><g id="elem_Car"><rect fill="#F1F1F1" height="48" id="Car" rx="2.5" ry="2.5" style="stroke:#181818;stroke-width:0.5;" width="55" x="314.5" y="382.4894"/><ellipse cx="329.5" cy="398.4894" fill="#ADD1B2" rx="11" ry="11" style="stroke:#181818;stroke-width:1.0;"/><path d="M332.2656,394.3644 Q332.4219,394.1456 332.6094,394.0363 Q332.7969,393.9269 333.0156,393.9269 Q333.3906,393.9269 333.625,394.1925 Q333.8594,394.4425 333.8594,395.0519 L333.8594,396.505 Q333.8594,397.1144 333.625,397.38 Q333.3906,397.6456 333.0156,397.6456 Q332.6719,397.6456 332.4688,397.4425 Q332.2656,397.255 332.1563,396.7394 Q332.1094,396.38 331.9219,396.1925 Q331.5938,395.8175 330.9844,395.5988 Q330.375,395.38 329.75,395.38 Q328.9844,395.38 328.3438,395.7081 Q327.7188,396.0363 327.2188,396.7863 Q326.7344,397.5363 326.7344,398.5675 L326.7344,399.6613 Q326.7344,400.8956 327.625,401.7238 Q328.5156,402.5363 330.1094,402.5363 Q331.0469,402.5363 331.7031,402.2863 Q332.0938,402.13 332.5156,401.6925 Q332.7813,401.4269 332.9219,401.3488 Q333.0781,401.2706 333.2813,401.2706 Q333.6094,401.2706 333.8594,401.5363 Q334.125,401.7863 334.125,402.13 Q334.125,402.4738 333.7813,402.88 Q333.2813,403.4581 332.4844,403.7863 Q331.4063,404.2394 330.1094,404.2394 Q328.5938,404.2394 327.3906,403.6144 Q326.4063,403.1144 325.7188,402.0519 Q325.0313,400.9738 325.0313,399.6925 L325.0313,398.5363 Q325.0313,397.2081 325.6406,396.0675 Q326.2656,394.9113 327.3594,394.3019 Q328.4531,393.6769 329.6875,393.6769 Q330.4219,393.6769 331.0625,393.8488 Q331.7188,394.005 332.2656,394.3644 Z " fill="#000000"/><text fill="#000000" font-family="sans-serif" font-size="14" lengthAdjust="spacing" textLength="23" x="343.5" y="404.2179">Car</text><line style="stroke:#181818;stroke-width:0.5;" x1="315.5" x2="368.5" y1="414.4894" y2="414.4894"/><line style="stroke:#181818;stroke-width:0.5;" x1="315.5" x2="368.5" y1="422.4894" y2="422.4894"/></g><g id="elem_GMN10"><path d="M160.5,44.6094 L160.5,103.6641 A0,0 0 0 0 160.5,103.6641 L280.62,103.6641 L218.34,203.2294 L288.62,103.6641 L447.5,103.6641 A0,0 0 0 0 447.5,103.6641 L447.5,54.6094 L437.5,44.6094 L160.5,44.6094 A0,0 0 0 0 160.5,44.6094 " fill="#FEFFDD" style="stroke:#181818;stroke-width:0.5;"/><path d="M437.5,44.6094 L437.5,54.6094 L447.5,54.6094 L437.5,44.6094 " fill="#FEFFDD" style="stroke:#181818;stroke-width:0.5;"/><text fill="#000000" font-family="sans-serif" font-size="13" lengthAdjust="spacing" textLength="266" x="166.5" y="63.1045">if (currentTime - lastSpawnTime &gt; spawnRate)</text><text fill="#000000" font-family="sans-serif" font-size="13" lengthAdjust="spacing" textLength="122" x="174.5" y="79.4561">and (next cell empty)</text><text fill="#000000" font-family="sans-serif" font-size="13" lengthAdjust="spacing" textLength="115" x="166.5" y="95.8076">then spawn new car</text></g><!--link SpawnCell to Cell--><g id="link_SpawnCell_Cell"><path codeLine="10" d="M185,304.7394 C185,330.7594 185,343.3994 185,363.9994 " fill="none" id="SpawnCell-to-Cell" style="stroke:#181818;stroke-width:1.0;"/><polygon fill="none" points="185,381.9994,191,363.9994,179,363.9994,185,381.9994" style="stroke:#181818;stroke-width:1.0;"/><text fill="#000000" font-family="sans-serif" font-size="13" lengthAdjust="spacing" textLength="63" x="186" y="348.9845">Inheritance</text></g><!--link clock to SpawnCell--><g id="link_clock_SpawnCell"><path codeLine="17" d="M81.31,98.0294 C99.02,124.4994 125.3348,163.8617 148.4048,198.3617 " fill="none" id="clock-to-SpawnCell" style="stroke:#181818;stroke-width:1.0;"/><polygon fill="#181818" points="151.74,203.3494,150.0623,193.6445,148.9607,199.193,143.4121,198.0914,151.74,203.3494" style="stroke:#181818;stroke-width:1.0;"/><text fill="#000000" font-family="sans-serif" font-size="13" lengthAdjust="spacing" textLength="68" x="115.84" y="148.1545">currentTime</text></g><!--link SpawnCell to Car--><g id="link_SpawnCell_Car"><path codeLine="18" d="M236.84,304.7394 C264,330.7594 291.6477,357.2484 313.1477,377.8484 " fill="none" id="SpawnCell-to-Car" style="stroke:#181818;stroke-width:1.0;"/><polygon fill="#181818" points="317.48,381.9994,313.7488,372.8847,313.8697,378.5402,308.2141,378.6611,317.48,381.9994" style="stroke:#181818;stroke-width:1.0;"/><text fill="#000000" font-family="sans-serif" font-size="13" lengthAdjust="spacing" textLength="45" x="283.18" y="348.9845">Creates</text></g><!--SRC=[NL11QiCm4Bph5ODF2SLWUlJ15vzwA9Iq7zYgcrYDl3BoXZIq-NibkM1Ja62PcTsPNNNg6Jr5l4vq5ISdFBCTIDmy6ZEHFTE9KHKIBy69LlWsWFKqpqjFpzuN3AWnP-H0oYsIzWzCMYtIDpTkY0Tel2qZAExi9KOMpP9zek_ffxSwrFLFXrArU9A1erCIo-PkJ7Z_PAiffHildjG5GU-3FLUWEILDLScdnVsnQPhSjE1rtMqyMcnIcArtLsxKee-SbfkDaQ0C3HF2SHsGJDmHsrN-RuzkFT6-N87a0plXBuNDLZnEUikC3YoB5i9NM8g6apJx_W80]--></g></svg>