<?xml version="1.0" encoding="us-ascii" standalone="no"?><svg xmlns="http://www.w3.org/2000/svg" xmlns:xlink="http://www.w3.org/1999/xlink" contentStyleType="text/css" height="273px" preserveAspectRatio="none" style="width:1048px;height:273px;background:#FFFFFF;" version="1.1" viewBox="0 0 1048 273" width="1048px" zoomAndPan="magnify"><defs/><g><text fill="#000000" font-family="sans-serif" font-size="14" font-weight="bold" lengthAdjust="spacing" textLength="207" x="413.5" y="24.5332">Traffic Light Conflict Scenario</text><g id="elem_intersection"><rect fill="#F1F1F1" height="47.2188" style="stroke:#181818;stroke-width:0.5;" width="153" x="561" y="219.3994"/><text fill="#000000" font-family="sans-serif" font-size="14" lengthAdjust="spacing" textLength="73" x="601" y="235.9326">Intersection</text><line style="stroke:#181818;stroke-width:0.5;" x1="562" x2="713" y1="241.0088" y2="241.0088"/><text fill="#000000" font-family="sans-serif" font-size="14" lengthAdjust="spacing" textLength="141" x="567" y="259.542">State: INTERSECTION</text></g><g id="elem_ns_light"><rect fill="#F1F1F1" height="82.4375" style="stroke:#181818;stroke-width:0.5;" width="176" x="448.5" y="51.7894"/><text fill="#000000" font-family="sans-serif" font-size="14" lengthAdjust="spacing" textLength="53" x="510" y="68.3226">Light NS</text><line style="stroke:#181818;stroke-width:0.5;" x1="449.5" x2="623.5" y1="73.3987" y2="73.3987"/><text fill="#000000" font-family="sans-serif" font-size="14" lengthAdjust="spacing" textLength="164" x="454.5" y="91.932">Direction: NORTH-SOUTH</text><text fill="#000000" font-family="sans-serif" font-size="14" lengthAdjust="spacing" textLength="66" x="454.5" y="109.5413">Cycle: 10s</text><text fill="#000000" font-family="sans-serif" font-size="14" lengthAdjust="spacing" textLength="89" x="454.5" y="127.1507">State: GREEN</text></g><g id="elem_ew_light"><rect fill="#F1F1F1" height="82.4375" style="stroke:#181818;stroke-width:0.5;" width="157" x="660" y="51.7894"/><text fill="#000000" font-family="sans-serif" font-size="14" lengthAdjust="spacing" textLength="57" x="710" y="68.3226">Light EW</text><line style="stroke:#181818;stroke-width:0.5;" x1="661" x2="816" y1="73.3987" y2="73.3987"/><text fill="#000000" font-family="sans-serif" font-size="14" lengthAdjust="spacing" textLength="145" x="666" y="91.932">Direction: EAST-WEST</text><text fill="#000000" font-family="sans-serif" font-size="14" lengthAdjust="spacing" textLength="66" x="666" y="109.5413">Cycle: 10s</text><text fill="#000000" font-family="sans-serif" font-size="14" lengthAdjust="spacing" textLength="89" x="666" y="127.1507">State: GREEN</text></g><g id="elem_car1"><rect fill="#F1F1F1" height="64.8281" style="stroke:#181818;stroke-width:0.5;" width="189" x="852" y="60.5894"/><text fill="#000000" font-family="sans-serif" font-size="14" lengthAdjust="spacing" textLength="35" x="929" y="77.1226">Car 1</text><line style="stroke:#181818;stroke-width:0.5;" x1="853" x2="1040" y1="82.1987" y2="82.1987"/><text fill="#000000" font-family="sans-serif" font-size="14" lengthAdjust="spacing" textLength="112" x="858" y="100.732">Direction: NORTH</text><text fill="#000000" font-family="sans-serif" font-size="14" lengthAdjust="spacing" textLength="177" x="858" y="118.3413">Position: Before intersection</text></g><g id="elem_car2"><rect fill="#F1F1F1" height="64.8281" style="stroke:#181818;stroke-width:0.5;" width="189" x="7" y="60.5894"/><text fill="#000000" font-family="sans-serif" font-size="14" lengthAdjust="spacing" textLength="35" x="84" y="77.1226">Car 2</text><line style="stroke:#181818;stroke-width:0.5;" x1="8" x2="195" y1="82.1987" y2="82.1987"/><text fill="#000000" font-family="sans-serif" font-size="14" lengthAdjust="spacing" textLength="100" x="13" y="100.732">Direction: EAST</text><text fill="#000000" font-family="sans-serif" font-size="14" lengthAdjust="spacing" textLength="177" x="13" y="118.3413">Position: Before intersection</text></g><g id="elem_GMN11"><path d="M231,44.6094 L231,89.0094 L196.46,93.0094 L231,97.0094 L231,141.3984 A0,0 0 0 0 231,141.3984 L414,141.3984 A0,0 0 0 0 414,141.3984 L414,54.6094 L404,44.6094 L231,44.6094 A0,0 0 0 0 231,44.6094 " fill="#FEFFDD" style="stroke:#181818;stroke-width:0.5;"/><path d="M404,44.6094 L404,54.6094 L414,54.6094 L404,44.6094 " fill="#FEFFDD" style="stroke:#181818;stroke-width:0.5;"/><text fill="#000000" font-family="sans-serif" font-size="13" lengthAdjust="spacing" textLength="124" x="237" y="63.1045">Conflict occurs when:</text><text fill="#000000" font-family="sans-serif" font-size="13" lengthAdjust="spacing" textLength="146" x="237" y="79.4561">- Lights are perpendicular</text><text fill="#000000" font-family="sans-serif" font-size="13" lengthAdjust="spacing" textLength="126" x="237" y="95.8076">- Cycles are multiples</text><text fill="#000000" font-family="sans-serif" font-size="13" lengthAdjust="spacing" textLength="162" x="237" y="112.1592">- Both green simultaneously</text><text fill="#000000" font-family="sans-serif" font-size="17" font-weight="bold" lengthAdjust="spacing" textLength="153" x="237" y="132.6631">&gt; Potential collision</text></g><!--link ns_light to intersection--><g id="link_ns_light_intersection"><path codeLine="29" d="M564.1,134.4494 C582.67,161.6694 603.1082,191.6132 618.4882,214.1532 " fill="none" id="ns_light-to-intersection" style="stroke:#181818;stroke-width:1.0;"/><polygon fill="#181818" points="621.87,219.1094,620.1014,209.4206,619.0518,214.9792,613.4932,213.9297,621.87,219.1094" style="stroke:#181818;stroke-width:1.0;"/><text fill="#000000" font-family="sans-serif" font-size="13" lengthAdjust="spacing" textLength="48" x="600.02" y="185.8945">Controls</text></g><!--link ew_light to intersection--><g id="link_ew_light_intersection"><path codeLine="30" d="M710.9,134.4494 C692.33,161.6694 671.8918,191.6132 656.5118,214.1532 " fill="none" id="ew_light-to-intersection" style="stroke:#181818;stroke-width:1.0;"/><polygon fill="#181818" points="653.13,219.1094,661.5068,213.9297,655.9482,214.9792,654.8986,209.4206,653.13,219.1094" style="stroke:#181818;stroke-width:1.0;"/><text fill="#000000" font-family="sans-serif" font-size="13" lengthAdjust="spacing" textLength="48" x="685.97" y="185.8945">Controls</text></g><!--link car1 to intersection--><g id="link_car1_intersection"><path codeLine="31" d="M880.21,125.7594 C821.69,153.7894 743.1914,191.3876 690.9314,216.4176 " fill="none" id="car1-to-intersection" style="stroke:#181818;stroke-width:1.0;"/><polygon fill="#181818" points="685.52,219.0094,695.3649,218.7293,690.0295,216.8496,691.9092,211.5141,685.52,219.0094" style="stroke:#181818;stroke-width:1.0;"/><text fill="#000000" font-family="sans-serif" font-size="13" lengthAdjust="spacing" textLength="55" x="783.73" y="185.8945">Moving to</text></g><!--link car2 to intersection--><g id="link_car2_intersection"><path codeLine="32" d="M171.92,125.9094 C185.56,131.4894 199.86,136.9294 213.5,141.3994 C332.48,180.3894 468.9416,209.8675 554.7216,226.6475 " fill="none" id="car2-to-intersection" style="stroke:#181818;stroke-width:1.0;"/><polygon fill="#181818" points="560.61,227.7994,552.5453,222.146,555.703,226.8395,551.0095,229.9972,560.61,227.7994" style="stroke:#181818;stroke-width:1.0;"/><text fill="#000000" font-family="sans-serif" font-size="13" lengthAdjust="spacing" textLength="55" x="375.75" y="185.8945">Moving to</text></g><!--SRC=[ZP91ImCn48Nl-HL3xmksnmKBTWsse5jfLdgK66Ut8p4fITPInFzkDajRAqlfBNblyita9O62HgYSh6jIy4ZD9a1XJQr91H0AZNHa6RDl7nY5qS84T3ukoPeHI0_qHu1l1Y2239Z3egpuIl2YMYnBzdC2z1rAaGuR_whJlZjuJwx7v50kLzKy4ykNQXwDOgzq98vl_0d_iE9yWClNYOkxOIw_4rMsvgAwbbf81-E4LDAD1yUCqhFrr2iphAt3ir3-uoO7t6HekcjenzIoR7gUVzuzNN1MUtQCu59HkjH0mPFz8jD0i2pDUR626HiGNEhLnNhuErQfrddORT3aKS_wl-L1nXjjqMtHl9DgjNJ9JA_Hcv-j3hIDksJCRDX0un0DUEeiQT2sNk-ZUpkDOGKqWQG6PRKctqKKoT0DzGi0]--></g></svg>