<?xml version="1.0" encoding="us-ascii" standalone="no"?><svg xmlns="http://www.w3.org/2000/svg" xmlns:xlink="http://www.w3.org/1999/xlink" contentStyleType="text/css" height="418px" preserveAspectRatio="none" style="width:283px;height:418px;background:#FFFFFF;" version="1.1" viewBox="0 0 283 418" width="283px" zoomAndPan="magnify"><defs/><g><text fill="#000000" font-family="sans-serif" font-size="14" font-weight="bold" lengthAdjust="spacing" textLength="157" x="56" y="24.5332">Traffic Light Operation</text><!--cluster Traffic Light--><g id="cluster_Traffic Light"><path d="M8.5,44.6094 L92.5,44.6094 A3.75,3.75 0 0 1 95,47.1094 L102,68.2188 L273.5,68.2188 A2.5,2.5 0 0 1 276,70.7188 L276,408.9894 A2.5,2.5 0 0 1 273.5,411.4894 L8.5,411.4894 A2.5,2.5 0 0 1 6,408.9894 L6,47.1094 A2.5,2.5 0 0 1 8.5,44.6094 " fill="none" style="stroke:#000000;stroke-width:1.5;"/><line style="stroke:#000000;stroke-width:1.5;" x1="6" x2="102" y1="68.2188" y2="68.2188"/><text fill="#000000" font-family="sans-serif" font-size="14" font-weight="bold" lengthAdjust="spacing" textLength="83" x="10" y="61.1426">Traffic Light</text></g><!--class TrafficLight--><g id="elem_TrafficLight"><rect codeLine="4" fill="#F1F1F1" height="153.6563" id="TrafficLight" rx="2.5" ry="2.5" style="stroke:#181818;stroke-width:0.5;" width="238" x="22" y="80.6094"/><ellipse cx="101.25" cy="96.6094" fill="#ADD1B2" rx="11" ry="11" style="stroke:#181818;stroke-width:1.0;"/><path d="M104.0156,92.4844 Q104.1719,92.2656 104.3594,92.1563 Q104.5469,92.0469 104.7656,92.0469 Q105.1406,92.0469 105.375,92.3125 Q105.6094,92.5625 105.6094,93.1719 L105.6094,94.625 Q105.6094,95.2344 105.375,95.5 Q105.1406,95.7656 104.7656,95.7656 Q104.4219,95.7656 104.2188,95.5625 Q104.0156,95.375 103.9063,94.8594 Q103.8594,94.5 103.6719,94.3125 Q103.3438,93.9375 102.7344,93.7188 Q102.125,93.5 101.5,93.5 Q100.7344,93.5 100.0938,93.8281 Q99.4688,94.1563 98.9688,94.9063 Q98.4844,95.6563 98.4844,96.6875 L98.4844,97.7813 Q98.4844,99.0156 99.375,99.8438 Q100.2656,100.6563 101.8594,100.6563 Q102.7969,100.6563 103.4531,100.4063 Q103.8438,100.25 104.2656,99.8125 Q104.5313,99.5469 104.6719,99.4688 Q104.8281,99.3906 105.0313,99.3906 Q105.3594,99.3906 105.6094,99.6563 Q105.875,99.9063 105.875,100.25 Q105.875,100.5938 105.5313,101 Q105.0313,101.5781 104.2344,101.9063 Q103.1563,102.3594 101.8594,102.3594 Q100.3438,102.3594 99.1406,101.7344 Q98.1563,101.2344 97.4688,100.1719 Q96.7813,99.0938 96.7813,97.8125 L96.7813,96.6563 Q96.7813,95.3281 97.3906,94.1875 Q98.0156,93.0313 99.1094,92.4219 Q100.2031,91.7969 101.4375,91.7969 Q102.1719,91.7969 102.8125,91.9688 Q103.4688,92.125 104.0156,92.4844 Z " fill="#000000"/><text fill="#000000" font-family="sans-serif" font-size="14" lengthAdjust="spacing" textLength="71" x="121.75" y="102.3379">TrafficLight</text><line style="stroke:#181818;stroke-width:0.5;" x1="23" x2="259" y1="112.6094" y2="112.6094"/><rect fill="none" height="6" style="stroke:#C82930;stroke-width:1.0;" width="6" x="30" y="123.9141"/><text fill="#000000" font-family="sans-serif" font-size="14" lengthAdjust="spacing" textLength="119" x="42" y="131.1426">currentState: State</text><rect fill="none" height="6" style="stroke:#C82930;stroke-width:1.0;" width="6" x="30" y="141.5234"/><text fill="#000000" font-family="sans-serif" font-size="14" lengthAdjust="spacing" textLength="99" x="42" y="148.752">cycleLength: int</text><rect fill="none" height="6" style="stroke:#C82930;stroke-width:1.0;" width="6" x="30" y="159.1328"/><text fill="#000000" font-family="sans-serif" font-size="14" lengthAdjust="spacing" textLength="118" x="42" y="166.3613">direction: Direction</text><line style="stroke:#181818;stroke-width:0.5;" x1="23" x2="259" y1="173.4375" y2="173.4375"/><ellipse cx="33" cy="187.7422" fill="#84BE84" rx="3" ry="3" style="stroke:#038048;stroke-width:1.0;"/><text fill="#000000" font-family="sans-serif" font-size="14" lengthAdjust="spacing" textLength="85" x="42" y="191.9707">update(timer)</text><ellipse cx="33" cy="205.3516" fill="#84BE84" rx="3" ry="3" style="stroke:#038048;stroke-width:1.0;"/><text fill="#000000" font-family="sans-serif" font-size="14" lengthAdjust="spacing" textLength="159" x="42" y="209.5801">isConflict(other): boolean</text><ellipse cx="33" cy="222.9609" fill="#84BE84" rx="3" ry="3" style="stroke:#038048;stroke-width:1.0;"/><text fill="#000000" font-family="sans-serif" font-size="14" lengthAdjust="spacing" textLength="212" x="42" y="227.1895">adjustTiming(queue: queue): void</text></g><!--class State--><g id="elem_State"><rect codeLine="13" fill="#F1F1F1" height="83.2188" id="State" rx="2.5" ry="2.5" style="stroke:#181818;stroke-width:0.5;" width="65" x="108.5" y="312.2694"/><ellipse cx="123.5" cy="328.2694" fill="#EB937F" rx="11" ry="11" style="stroke:#181818;stroke-width:1.0;"/><path d="M122.3594,329.0662 L122.3594,331.5662 L126.6875,331.5662 L126.6875,330.6444 Q126.6875,330.035 126.9219,329.7694 Q127.1719,329.5037 127.5469,329.5037 Q127.9219,329.5037 128.1563,329.7694 Q128.3906,330.035 128.3906,330.6444 L128.3906,333.2694 L120.3906,333.2694 Q119.7656,333.2694 119.5,333.035 Q119.25,332.8006 119.25,332.41 Q119.25,332.035 119.5156,331.8006 Q119.7813,331.5662 120.3906,331.5662 L120.6563,331.5662 L120.6563,324.91 L120.3906,324.91 Q119.7656,324.91 119.5,324.6756 Q119.25,324.4412 119.25,324.0506 Q119.25,323.6756 119.5,323.4412 Q119.7656,323.2069 120.3906,323.2069 L128.0156,323.2069 L128.0156,325.8006 Q128.0156,326.41 127.7813,326.6756 Q127.5625,326.9256 127.1719,326.9256 Q126.7969,326.9256 126.5625,326.6756 Q126.3281,326.41 126.3281,325.8006 L126.3281,324.91 L122.3594,324.91 L122.3594,327.3631 L123.8438,327.3631 Q123.8438,326.7069 123.9688,326.5194 Q124.2344,326.1131 124.7031,326.1131 Q125.0781,326.1131 125.3125,326.3787 Q125.5469,326.6287 125.5469,327.2381 L125.5469,329.2069 Q125.5469,329.7537 125.4219,329.9412 Q125.1563,330.3319 124.7031,330.3319 Q124.2344,330.3319 123.9688,329.9256 Q123.8438,329.7381 123.8438,329.0662 L122.3594,329.0662 Z " fill="#000000"/><text fill="#000000" font-family="sans-serif" font-size="14" lengthAdjust="spacing" textLength="33" x="137.5" y="333.9979">State</text><line style="stroke:#181818;stroke-width:0.5;" x1="109.5" x2="172.5" y1="344.2694" y2="344.2694"/><text fill="#000000" font-family="sans-serif" font-size="14" lengthAdjust="spacing" textLength="29" x="114.5" y="362.8026">RED</text><text fill="#000000" font-family="sans-serif" font-size="14" lengthAdjust="spacing" textLength="48" x="114.5" y="380.412">GREEN</text><line style="stroke:#181818;stroke-width:0.5;" x1="109.5" x2="172.5" y1="387.4881" y2="387.4881"/></g><!--reverse link TrafficLight to State--><g id="link_TrafficLight_State"><path codeLine="18" d="M141,246.7294 C141,273.0094 141,289.4294 141,311.8094 " fill="none" id="TrafficLight-backto-State" style="stroke:#181818;stroke-width:1.0;"/><polygon fill="#181818" points="141,234.7294,137,240.7294,141,246.7294,145,240.7294,141,234.7294" style="stroke:#181818;stroke-width:1.0;"/><text fill="#000000" font-family="sans-serif" font-size="13" lengthAdjust="spacing" textLength="71" x="142" y="278.7645">currentState</text><text fill="#000000" font-family="sans-serif" font-size="13" lengthAdjust="spacing" textLength="7" x="133.6883" y="255.8365">1</text><text fill="#000000" font-family="sans-serif" font-size="13" lengthAdjust="spacing" textLength="7" x="133.4422" y="301.3527">1</text></g><!--SRC=[LO-nRiCm34HtVGNXoMtW8QlMniWIf82J7r1ascOYIwvC5IY2_7iLsHgyw8JZFV38n0RXwbNNaOOJzGF3zuHUCJahnAJqG_K8nIPHm5C0QAFcEQCB-RO1Aj31UxHyOSKe8KcU_6c39xGz3nB8ycgtv56_Lqeuv6yQxI1CRSHBfX7zn-hH_ELiPqXpwNY8leIRSmPLXbHx3pDVQIJRbpy1GwoH92P_7RKnzXBnGHl6fT_QlQaFIOzDNPzpQdDZiI_WiwgIBgJSt2jU_m00]--></g></svg>